<?xml version="1.0" encoding="utf-8"?>
<!-- Generator: Adobe Illustrator 25.2.3, SVG Export Plug-In . SVG Version: 6.00 Build 0)  -->
<svg version="1.1" id="Outline" xmlns="http://www.w3.org/2000/svg" xmlns:xlink="http://www.w3.org/1999/xlink" x="0px" y="0px"
	 viewBox="0 0 512 512" style="enable-background:new 0 0 512 512;" xml:space="preserve">
<g>
	<path d="M431.2,283.7L431.2,283.7c0,0-16.5-41.2-20.3-54.9c-4.1-14.7-11.4-59-11.4-59c-23-82.6-108.6-131-191.2-108
		c-55.3,15.4-97.5,59.9-110,115.9c0,0-3.5,38.3-6.4,51.1c-3.3,14.8-18.1,59.1-18.1,59.1c-10,44.9,18.3,89.4,63.2,99.4
		c5.9,1.3,12,2,18.1,2h18.6c9.2,45.1,53.1,74.2,98.2,65.1c32.8-6.7,58.4-32.3,65.1-65.1h14c46,0,83.3-37.3,83.3-83.3
		C434.3,298.5,433.3,291,431.2,283.7z M255.4,422.6c-21.1-0.1-39.9-13.4-46.9-33.3h93.8C295.2,409.2,276.5,422.6,255.4,422.6z
		 M390.8,336.2c-9.4,12.5-24.2,19.8-39.8,19.7H155.1c-27.6,0-50-22.4-50-50c0-3.6,0.4-7.3,1.2-10.8c0,0,16.1-49.8,19.7-66.4
		c2.4-11,4.7-43.9,4.7-43.9c14.6-65.8,79.8-107.2,145.6-92.6c44,9.8,79,43,91.1,86.4c0,0,5.4,37.6,8.9,50.1
		c4.4,16,22.7,63.8,22.7,63.8C403.4,307.7,400.3,323.8,390.8,336.2z"/>
</g>
</svg>
