<?xml version="1.0" encoding="utf-8"?>
<!-- Generator: Adobe Illustrator 25.2.3, SVG Export Plug-In . SVG Version: 6.00 Build 0)  -->
<svg version="1.1" id="Filled" xmlns="http://www.w3.org/2000/svg" xmlns:xlink="http://www.w3.org/1999/xlink" x="0px" y="0px"
	 viewBox="0 0 512 512" style="enable-background:new 0 0 512 512;" xml:space="preserve">
<g>
	<path d="M460.5,139.1l-345.9,1.1L99,63.2c-0.9-4.2-4.5-7.2-8.8-7.2c-8.1,0-21.7,0-33.4,0H53c-10.4,0-19.2,8-19.6,18.4
		c-0.2,10.9,8.4,19.8,19.3,19.8L62.8,94c4.4-0.1,8.1,3,8.9,7.3l7.1,38.8L112,353.8c1.2,8.9,8.7,15.7,17.7,15.7h289.8
		c9.1,0,16.8-6.8,17.8-15.8l41.1-194.9C479.5,148.3,471.2,139.1,460.5,139.1z"/>
	<circle cx="167.3" cy="421.7" r="34.3"/>
	<circle cx="368.2" cy="421.7" r="34.3"/>
</g>
</svg>
