<?xml version="1.0" encoding="utf-8"?>
<!-- Generator: Adobe Illustrator 25.2.3, SVG Export Plug-In . SVG Version: 6.00 Build 0)  -->
<svg version="1.1" id="Outline" xmlns="http://www.w3.org/2000/svg" xmlns:xlink="http://www.w3.org/1999/xlink" x="0px" y="0px"
	 viewBox="0 0 512 512" style="enable-background:new 0 0 512 512;" xml:space="preserve">
<g>
	<path d="M359.2,280c-8.8-14-21.5-23.5-36-30.9c-14.7-7.5-30.3-12.3-46.1-16.7c-2.5-0.7-3.5-1.6-3.5-4.4c0.1-27.2,0.1-54.4,0-81.6
		c0-3.3,1-3.5,3.8-2.9c17.1,3.6,32.7,10.4,46.7,20.7c5.1,3.7,10.6,5.6,16.8,4c8.4-2.1,14-7.3,16.3-15.7c2.1-7.5,0.2-14.3-5.7-19.5
		c-5.8-5.1-12.1-9.4-18.8-13.3c-17.2-9.8-35.5-16-55.3-17.4c-3.1-0.2-4.2-1.3-4-4.5c0.3-7.2-0.2-14.3,0.2-21.5
		c0.5-9.7-2.8-16.6-12.3-20c-2.3,0-4.7,0-7,0c-9.7,4.2-12.4,12-11.7,21.8c0.4,6.2,0,12.5,0.1,18.7c0.1,2.7-0.5,3.8-3.6,4.1
		c-14.6,1.2-28.6,4.9-42,11c-36.7,16.8-55.3,51.4-48.1,91.2c4,22.2,17.8,37.4,36.9,48.2c16.7,9.4,34.9,14.8,53.2,19.8
		c2.7,0.7,3.6,1.9,3.6,4.7c-0.1,31.1-0.1,62.2,0,93.3c0,3.7-1.2,3.9-4.2,3.4c-15.6-2.8-30.4-8-44.1-15.9c-7.1-4.1-13.4-9.4-20.2-14
		c-8.8-6-20-3.8-26.7,4.8c-6.8,8.8-6.3,21.2,1.5,28c13.8,12.2,29.2,21.6,46.5,28.1c13.9,5.2,28.1,8.5,42.9,9.1
		c3.7,0.1,4.9,1.3,4.7,5.1c-0.3,6.1,0.2,12.3-0.2,18.3c-0.6,9.7,2.8,16.7,12.1,20.2c2.3,0,4.7,0,7,0c10.2-4,12.6-7.8,12.6-19.2
		c0-7.2,0.1-14.3-0.1-21.5c0-2.3,0.6-3.1,3-3.3c9.9-0.8,19.6-2.4,29.1-5.3c16.6-5,31.4-13.1,43.1-26.2c13.4-15,19.7-32.9,20.5-52.7
		C371,311.3,368.5,294.9,359.2,280z M238.7,222.2c-9.1-3-18.3-5.8-26.7-10.7c-21-12.2-24.5-37.1-7.5-54.7
		c9.9-10.2,22.7-14.1,36.4-15.8c2.6-0.3,1.8,1.7,1.8,2.9c0.1,7.9,0,15.9,0,23.8c0,4.8,0,9.6,0,14.4c0,12.4-0.1,24.7,0.1,37.1
		C243,222.9,242,223.3,238.7,222.2z M316.3,353.2c-10,12.8-24.1,18-39.5,20.4c-3.1,0.5-2.2-1.9-2.2-3.3c-0.1-14.2,0-28.3,0-42.5
		c0-13.9,0.1-27.8,0-41.7c0-3,0.2-4.2,3.8-3c9.9,3.3,19.5,6.8,28.6,12.2C330.5,309.4,328.6,337.5,316.3,353.2z"/>
</g>
</svg>
