<?xml version="1.0" encoding="utf-8"?>
<!-- Generator: Adobe Illustrator 25.2.3, SVG Export Plug-In . SVG Version: 6.00 Build 0)  -->
<svg version="1.1" id="Filled" xmlns="http://www.w3.org/2000/svg" xmlns:xlink="http://www.w3.org/1999/xlink" x="0px" y="0px"
	 viewBox="0 0 512 512" style="enable-background:new 0 0 512 512;" xml:space="preserve">
<g>
	<path d="M256.1,471c-4,0-7.9-1.3-11.5-4c-53.1-39.3-109-82.1-156.1-135.8C60.4,299,42,269.5,30.5,238
		c-7.4-20.2-10.8-39.2-10.5-57.9c0.6-36.1,11.2-67.2,31.6-92.6c36.7-45.7,96.3-59.1,152-34c19.3,8.6,36.5,20.8,52.4,37.1
		c22.8-23.3,47.7-38.2,75.7-45.4c31.7-8.1,62.8-4.6,90.2,10c27.2,14.5,47.9,38.6,59.7,69.7l0,0c15.7,41.2,13.5,84.5-6.4,128.8
		c-13.9,30.6-34.3,59.7-64.4,91.8c-41,43.6-87.8,80.3-132.3,113.4c-1.4,1.1-2.9,2.1-4.3,3.2c-2.2,1.6-4.2,3-6.1,4.5l-0.5,0.4
		C264,469.7,260,471,256.1,471z M147.6,71.1c-28,0-54.2,12.1-72.6,35.1c-16.3,20.4-24.5,44.7-25,74.4c-0.2,15,2.6,30.4,8.7,47.1
		c10.1,27.9,26.8,54.5,52.3,83.7c43.3,49.4,95.2,89.8,145.1,126.8c0.2-0.1,0.4-0.3,0.5-0.4c1.3-0.9,2.6-1.9,3.9-2.8
		c43.4-32.4,88.9-68,128.4-110c27.8-29.6,46.5-56.1,59-83.6c16.8-37.2,18.7-71.8,5.7-105.8c-18.8-49.3-64.8-73.9-114.5-61.3
		c-25.3,6.5-47.8,21.2-68.7,44.9c-1.6,1.8-6.4,7.3-14.4,7.3c0,0,0,0-0.1,0c-8,0-12.7-5.5-14.5-7.5c-15.1-17.3-31.5-29.8-50.1-38.1
		C176.8,74.3,162,71.1,147.6,71.1z"/>
</g>
</svg>
