<?xml version="1.0" encoding="utf-8"?>
<!-- Generator: Adobe Illustrator 25.2.3, SVG Export Plug-In . SVG Version: 6.00 Build 0)  -->
<svg version="1.1" id="Outline" xmlns="http://www.w3.org/2000/svg" xmlns:xlink="http://www.w3.org/1999/xlink" x="0px" y="0px"
	 viewBox="0 0 512 512" style="enable-background:new 0 0 512 512;" xml:space="preserve">
<path class="st0" d="M35,180.4c0.5-30.9,8.8-59.2,28.3-83.5c32.4-40.4,84.9-52,134.1-29.9c21.7,9.7,39.8,24.3,55.3,42
	c2.5,2.9,3.7,3.3,6.4,0.1c20.8-23.6,45.4-41.6,76.3-49.5c56.9-14.5,110.7,14.2,132.2,70.6c15.2,39.9,11.2,78.9-6.2,117.1
	c-15,33.1-37,61.4-61.7,87.7c-39.4,41.9-84.3,77.5-130.3,111.7c-3.6,2.7-7.3,5.2-10.8,8c-1.9,1.5-3.2,1.5-5.2,0
	c-54.8-40.5-108.6-82.2-153.8-133.7c-23.2-26.4-43-55-55.1-88.4C38.4,215.9,34.7,198.5,35,180.4z"/>
<path class="st1" d="M364.2,88.7c-4.7,0.6-10.3,0.9-15.8,1.9c-12.9,2.3-24.7,7.3-35.6,14.6c-3.4,2.3-5.1,5.3-3.1,9.3
	c2,3.9,5.7,4.8,10.2,2.6c0.9-0.4,1.7-1,2.6-1.5c14.6-9,30.2-13.8,47.5-12.3c13.2,1.1,24.6,5.9,34.4,14.9
	c11.8,10.7,18.8,24.1,22.7,39.4c1.7,6.5,4.8,9.3,9.1,8.1c4.6-1.3,6.2-5.3,4.4-11.8c-2.3-8.7-5.5-17-10-24.8
	C416.3,103.6,394.6,89.8,364.2,88.7z"/>
</svg>
