<?xml version="1.0" encoding="utf-8"?>
<!-- Generator: Adobe Illustrator 25.2.3, SVG Export Plug-In . SVG Version: 6.00 Build 0)  -->
<svg version="1.1" id="Outline" xmlns="http://www.w3.org/2000/svg" xmlns:xlink="http://www.w3.org/1999/xlink" x="0px" y="0px"
	 viewBox="0 0 512 512" style="enable-background:new 0 0 512 512;" xml:space="preserve">
<g>
	<g>
		<g>
			<path d="M256.3,86.1c0.2,0.1,0.7,0.3,1.3,0.6c28,16.8,56.5,33.9,84.1,50.5c27.6,16.6,56.1,33.7,84.2,50.5l0.1,0l0.1,0
				c0.6,0.4,1,0.7,1.2,0.8c0.1,0.3,0.2,1,0.2,2.2c0,36.4,0,73.5,0,109.3c0,35.8,0,72.8-0.1,109.3c0,10.7-5.9,16.5-16.7,16.6h-70.8
				c-0.7,0-1.2,0-1.5-0.1c-0.1-0.4-0.2-1-0.2-1.9v-77.6c0-27.5-19.2-46.9-46.6-47.1l-0.1,0h-0.1h-70.8c-27.5,0-46.7,19.2-46.7,46.7
				v77.7c0,0.9-0.1,1.6-0.1,2c-0.5,0.1-1.2,0.2-2.2,0.2h-69.9c-11,0-16.9-5.8-16.9-16.7c0.3-36.4,0.3-73.3,0.3-109
				c0-9,0-18.1,0-27.1c0-26.7,0-54.3-0.1-81.6l0,0l0,0c0-1.4,0.1-2.2,0.2-2.5c0.2-0.2,0.9-0.8,2.2-1.6l0.1,0l0.1,0
				c34.5-20.6,69.5-41.6,103.3-62c20.9-12.6,42.5-25.6,63.9-38.4C255.4,86.4,256,86.2,256.3,86.1 M256.3,56
				c-5.7,0-11.4,1.7-17.1,5.2c-55.7,33.4-111.3,67-167.1,100.3c-11.7,6.9-17.3,16.6-17.2,30.2c0.2,36.2,0.1,72.3,0.1,108.5
				c0,36.2,0,72.6-0.3,108.9c0,27.6,19.2,46.8,46.9,46.8c23.3,0,46.6,0,69.9,0c19.9,0,32.3-12.3,32.3-32.2c0-25.9,0-51.8,0-77.7
				c0-10.8,5.9-16.7,16.7-16.7c23.6,0,47.2,0,70.8,0c11,0.1,16.9,6,16.9,17.1c0,25.9,0,51.8,0,77.7c0.1,19.3,12.5,31.9,31.7,31.9
				c23.6,0,47.2,0,70.8,0c27.3-0.1,46.6-19.3,46.6-46.6c0.1-72.9,0-145.7,0.1-218.5c0-12.8-5.1-22.4-16.1-28.9
				C385.2,128.4,329.1,94.6,273,61C267.4,57.7,261.9,56,256.3,56L256.3,56z"/>
		</g>
	</g>
</g>
</svg>
