<?xml version="1.0" encoding="utf-8"?>
<!-- Generator: Adobe Illustrator 25.2.3, SVG Export Plug-In . SVG Version: 6.00 Build 0)  -->
<svg version="1.1" id="Capa_1" xmlns="http://www.w3.org/2000/svg" xmlns:xlink="http://www.w3.org/1999/xlink" x="0px" y="0px"
	 viewBox="0 0 512 512" style="enable-background:new 0 0 512 512;" xml:space="preserve">
<g>
	<g>
		<path class="st0" d="M54.9,300.2c0-36.2,0.1-72.3-0.1-108.5c-0.1-13.6,5.5-23.3,17.2-30.2C127.6,128.2,183.4,94.7,239,61.2
			c11.3-6.8,22.6-6.9,33.8-0.2c56.1,33.6,112.2,67.4,168.3,101c11,6.5,16.1,16.1,16.1,28.9c-0.1,72.8,0,145.6-0.1,218.5
			c0,27.3-19.3,46.5-46.6,46.6c-23.6,0-47.2,0-70.8,0c-19.2,0-31.6-12.6-31.7-31.9c0-25.9,0-51.8,0-77.7c0-11.1-5.9-17-16.9-17.1
			c-23.6,0-47.2,0-70.8,0c-10.8,0-16.7,5.9-16.7,16.7c0,25.9,0,51.8,0,77.7c0,19.9-12.4,32.2-32.3,32.2c-23.3,0-46.6,0-69.9,0
			c-27.7,0-46.9-19.2-46.9-46.8C54.8,372.9,54.9,336.6,54.9,300.2z"/>
	</g>
</g>
</svg>
