<?xml version="1.0" encoding="utf-8"?>
<!-- Generator: Adobe Illustrator 25.2.3, SVG Export Plug-In . SVG Version: 6.00 Build 0)  -->
<svg version="1.1" id="Bold" xmlns="http://www.w3.org/2000/svg" xmlns:xlink="http://www.w3.org/1999/xlink" x="0px" y="0px"
	 viewBox="0 0 512 512" style="enable-background:new 0 0 512 512;" xml:space="preserve">
<path d="M212.4,292.8L212.4,292.8L212.4,292.8c-20.2-20.2-20.1-53,0-73.1l128-128c2.8-2.8,4.4-6.6,4.4-10.6c0-4-1.6-7.8-4.4-10.6
	c-2.8-2.8-6.6-4.4-10.6-4.4c-4,0-7.8,1.6-10.6,4.4l-128,128.1c-15.4,15.5-23.9,36-23.9,57.8c0,21.8,8.5,42.4,23.9,57.8l127.8,127.7
	c2.8,2.7,6.5,4.2,10.4,4.2c3.9,0,7.6-1.5,10.4-4.2c2.9-2.8,4.5-6.5,4.6-10.5c0.1-4-1.4-7.8-4.2-10.6L212.4,292.8z"/>
</svg>
