<?xml version="1.0" encoding="utf-8"?>
<!-- Generator: Adobe Illustrator 25.2.3, SVG Export Plug-In . SVG Version: 6.00 Build 0)  -->
<svg version="1.1" id="Filled" xmlns="http://www.w3.org/2000/svg" xmlns:xlink="http://www.w3.org/1999/xlink" x="0px" y="0px"
	 viewBox="0 0 512 512" style="enable-background:new 0 0 512 512;" xml:space="preserve">
<path d="M453.6,234.9l-86.3,63c-7.2,5.3-10.3,14.6-7.5,23.2l32.8,101.4c4.3,13.5-3,27.8-16.5,32.1c-7.8,2.5-16.4,1.2-23-3.7
	l-84.8-62.4c-7.3-5.4-17.3-5.4-24.7,0l-84.8,62.4c-11.3,8.4-27.3,6.1-35.7-5.2c-5-6.6-6.3-15.3-3.8-23.2l32.9-101.4
	c2.7-8.6-0.3-18-7.5-23.2l-86.3-63c-11.4-8.3-13.9-24.3-5.6-35.7c4.8-6.5,12.5-10.4,20.6-10.4h106.2c9.1,0,17.1-5.9,19.8-14.4
	l32.3-100.6c4.3-13.5,18.7-20.8,32.1-16.5c7.8,2.5,14,8.7,16.5,16.5l32.3,100.6c2.7,8.6,10.7,14.4,19.8,14.4h106.2
	c14.1,0,25.6,11.4,25.6,25.6C464.1,222.4,460.2,230.1,453.6,234.9L453.6,234.9z"/>
</svg>
