<?xml version="1.0" encoding="utf-8"?>
<!-- Generator: Adobe Illustrator 25.2.3, SVG Export Plug-In . SVG Version: 6.00 Build 0)  -->
<svg version="1.1" id="Outline" xmlns="http://www.w3.org/2000/svg" xmlns:xlink="http://www.w3.org/1999/xlink" x="0px" y="0px"
	 viewBox="0 0 512 512" style="enable-background:new 0 0 512 512;" xml:space="preserve">
<g>
	<path d="M151.4,456c-11.5,0-22.9-5.2-30.2-15.1c-7.3-9.6-9.4-22.4-5.7-34.2l0-0.1l30.6-94.3c0.7-2.3-0.1-4.8-1.8-6l-80.4-58.7
		c-8.1-5.9-13.5-14.7-15-24.6c-1.6-10,0.8-19.9,6.8-28.1l0.1-0.1c7.1-9.6,18.5-15.3,30.4-15.3h98.8c2.3,0,4.4-1.5,5.1-3.7l30.1-93.6
		c3-9.6,9.7-17.4,18.6-22c9-4.6,19.2-5.5,28.8-2.4c11.6,3.7,20.7,12.8,24.4,24.4l30.1,93.6c0.7,2.3,2.8,3.7,5.1,3.7h98.8
		c20.8,0,37.8,16.9,37.8,37.8l0,0.2c-0.1,11.9-6,23.2-15.6,30.2l-80.3,58.6c-1.9,1.4-2.7,3.8-1.9,6l30.5,94.4
		c3.1,9.7,2.3,19.9-2.3,28.8c-4.6,9-12.4,15.6-22.1,18.7c-11.6,3.7-24.3,1.6-34-5.5l-78.9-58c-1.9-1.4-4.5-1.4-6.5,0l-78.9,58
		C167.1,453.6,159.2,456,151.4,456z M142.1,415.2c-1,3.2-0.5,6.5,1.4,8.9l0.1,0.1c3.2,4.3,9.3,5.2,13.7,2l79-58.1
		c11.9-8.7,27.8-8.7,39.6,0l78.9,58c2.5,1.9,5.8,2.4,8.9,1.4c2.5-0.8,4.6-2.5,5.7-4.8c1.2-2.3,1.4-5,0.6-7.5l-30.5-94.3
		c-4.4-13.6,0.4-28.6,12-37.1l80.4-58.7c2.5-1.8,4-4.8,4.1-7.9c0-5.4-4.5-9.8-9.9-9.8H327c-14.6,0-27.4-9.3-31.7-23.2l-30-93.5
		c-0.9-3-3.4-5.4-6.3-6.3c-2.5-0.8-5.2-0.6-7.5,0.6c-2.3,1.2-4,3.2-4.8,5.7l-30.1,93.6c-4.4,13.8-17.1,23.1-31.7,23.1H86.1
		c-3.1,0-6.1,1.5-7.9,4c-1.5,2.1-2.1,4.7-1.7,7.3c0.4,2.6,1.8,4.9,3.9,6.4l80.3,58.6c11.5,8.3,16.4,23.2,12.1,37l0,0.1L142.1,415.2z
		"/>
</g>
</svg>
